<?xml version="1.0" encoding="UTF-8"?>
<svg version="1.1" xmlns="http://www.w3.org/2000/svg" width="1536" height="1024">
<path d="M0 0 C506.88 0 1013.76 0 1536 0 C1536 337.92 1536 675.84 1536 1024 C1029.12 1024 522.24 1024 0 1024 C0 686.08 0 348.16 0 0 Z " fill="#FEFEFE" transform="translate(0,0)"/>
<path d="M0 0 C1.01319305 -0.00045319 2.02638611 -0.00090637 3.07028198 -0.00137329 C18.60630938 0.01902345 33.36642032 0.9189921 48.5625 4.375 C49.92647112 4.65405097 51.29101023 4.93034846 52.65625 5.203125 C57.75473349 6.28253367 62.49248914 7.66941656 67.36450195 9.53833008 C69.65627424 10.41069525 71.96067587 11.24039232 74.26953125 12.06640625 C84.4493644 15.77349588 94.04665113 19.86702141 103.43286133 25.31274414 C107.52544046 27.67470315 107.52544046 27.67470315 112.09375 28.4375 C115.76595028 26.85705937 119.12937102 24.85223556 122.5625 22.8125 C145.09270178 9.97102247 169.79282382 3.87966409 195.51489258 1.7253418 C196.26129804 1.66153175 197.00770351 1.5977217 197.77672732 1.53197801 C215.38935222 0.05959184 232.95932231 -0.01955781 250.62187171 0.07081819 C255.0406081 0.09004244 259.45935629 0.0913703 263.87812805 0.09489441 C272.18206587 0.10408454 280.48588 0.12851425 288.78976423 0.15894288 C298.27042622 0.19290233 307.75109527 0.20907541 317.2318033 0.22402918 C336.67545247 0.25508159 356.11893289 0.30992224 375.5625 0.375 C375.5625 19.185 375.5625 37.995 375.5625 57.375 C365.3325 57.375 355.1025 57.375 344.5625 57.375 C344.59279297 61.73976563 344.62308594 66.10453125 344.65429688 70.6015625 C344.75534102 85.18982608 344.85486523 99.77809975 344.95365143 114.36637878 C345.01345088 123.19201165 345.07373966 132.01764062 345.13525391 140.84326172 C345.63607362 212.7653678 345.63607362 212.7653678 345.5625 248.375 C324.7725 248.375 303.9825 248.375 282.5625 248.375 C282.5625 185.345 282.5625 122.315 282.5625 57.375 C259.7925 57.705 237.0225 58.035 213.5625 58.375 C217.8525 61.675 222.1425 64.975 226.5625 68.375 C243.42531112 83.84910903 253.66464756 104.4368443 255.5625 127.375 C256.83911129 157.55773829 253.58562837 186.42663281 233.5625 210.375 C233.01851562 211.06464844 232.47453125 211.75429688 231.9140625 212.46484375 C223.01324966 223.35057964 209.30161277 230.80695129 195.6875 234.0625 C185.26275367 235.10497463 176.1701887 234.05289971 166.7109375 229.40625 C164.61281378 228.33648662 164.61281378 228.33648662 162.4765625 227.71875 C160.5625 227 160.5625 227 157.5625 224.375 C156.87441713 220.73861268 156.68714873 217.28858853 156.6328125 213.58984375 C156.72045328 210.35651272 156.72045328 210.35651272 155.5625 207.375 C154.70591797 208.31859375 154.70591797 208.31859375 153.83203125 209.28125 C147.31110405 216.16502688 140.86508822 220.75050138 132.5625 225.375 C131.87671875 225.78492188 131.1909375 226.19484375 130.484375 226.6171875 C113.13915387 236.34559413 88.0498696 236.85782922 69.078125 232.40234375 C49.94153311 226.81020634 35.17272568 215.41828101 25.43164062 197.94580078 C10.40465741 169.85609706 9.6682186 136.83601004 18.4375 106.5 C19.12241735 104.45035927 19.82994626 102.40810204 20.5625 100.375 C20.89765625 99.42882812 21.2328125 98.48265625 21.578125 97.5078125 C26.6394674 84.35545091 34.26305082 71.94727882 43.5625 61.375 C13.94738312 55.99043329 -26.98143565 53.25370903 -54.01171875 69.6484375 C-61.39697542 74.90493258 -67.08724102 80.39952521 -71.4375 88.375 C-66.75088211 87.74467552 -66.75088211 87.74467552 -62.109375 86.85546875 C-47.99360331 84.3171063 -34.24517632 87.42819145 -22.4375 95.375 C-6.82804281 107.52840435 2.21250402 124.47393233 5.09765625 143.99609375 C5.39291774 147.79290702 5.51605709 151.56926173 5.5625 155.375 C5.59102051 156.62434326 5.59102051 156.62434326 5.62011719 157.89892578 C6.07411705 178.46660826 6.07411705 178.46660826 3.5625 187.375 C3.2325 188.55191406 2.9025 189.72882813 2.5625 190.94140625 C-2.11690597 206.61591965 -10.93207129 221.89451376 -25.4375 230.375 C-29.36932835 232.23963194 -33.35450309 233.87245714 -37.4375 235.375 C-38.34628906 235.74238281 -39.25507812 236.10976563 -40.19140625 236.48828125 C-53.75181868 240.19250943 -68.6298659 237.41673533 -81.4375 232.375 C-82.52546875 231.9521875 -83.6134375 231.529375 -84.734375 231.09375 C-93.06901302 227.37986984 -99.10469637 221.77976731 -105.4375 215.375 C-106.18 214.6428125 -106.9225 213.910625 -107.6875 213.15625 C-113.58145256 206.98601841 -117.48045669 199.88174392 -121.4375 192.375 C-121.77837646 191.74867676 -122.11925293 191.12235352 -122.47045898 190.47705078 C-138.83940658 159.45856674 -137.29715825 112.40423478 -127.64257812 79.68066406 C-123.13723857 65.24088872 -116.18357854 52.98245405 -106.4375 41.375 C-105.79554688 40.58738281 -105.15359375 39.79976563 -104.4921875 38.98828125 C-77.96589087 7.81254149 -39.10213376 -0.06810206 0 0 Z " fill="#FD491C" transform="translate(669.4375,374.625)"/>
<path d="M0 0 C20.79 0 41.58 0 63 0 C63 107.91 63 215.82 63 327 C-23.79 327 -110.58 327 -200 327 C-200 308.19 -200 289.38 -200 270 C-134 270 -68 270 0 270 C0 262.74 0 255.48 0 248 C-26.73 248 -53.46 248 -81 248 C-81 236.84985066 -80.98508578 225.8569081 -80.3125 214.75 C-80.27187439 214.07833801 -80.23124878 213.40667603 -80.18939209 212.71466064 C-79.23948339 197.61283461 -76.80287038 182.86712203 -74 168 C-70.58687424 150.61551346 -70.58687424 150.61551346 -69 133 C-68.96890137 132.33033203 -68.93780273 131.66066406 -68.90576172 130.97070312 C-68.47784683 121.25983046 -69.04261538 112.01561047 -70.75 102.4375 C-70.90686279 101.54619385 -71.06372559 100.6548877 -71.2253418 99.73657227 C-73.85447216 86.22776001 -79.38406824 75.74716415 -90.609375 67.5 C-94.53668906 65.03580294 -98.60380833 63.42948062 -103 62 C-103.64453125 61.77441406 -104.2890625 61.54882812 -104.953125 61.31640625 C-112.14699335 59.12499677 -121.28474799 58.35170609 -128.25 61.5 C-137.41497725 67.02992298 -144.58159133 74.74477399 -148 85 C-146.97261719 84.95359375 -145.94523437 84.9071875 -144.88671875 84.859375 C-131.59809045 84.43641612 -122.03515293 86.76099389 -112 96 C-111.32195312 96.61230469 -110.64390625 97.22460938 -109.9453125 97.85546875 C-100.57983783 107.27560573 -95.31236355 121.11683164 -93 134 C-92.79761719 134.94488281 -92.59523438 135.88976562 -92.38671875 136.86328125 C-87.34282292 164.41599111 -89.74097348 197.40913688 -106 221 C-113.68431342 231.42521502 -123.7146321 237.29646932 -136 241 C-136.91458984 241.29003906 -136.91458984 241.29003906 -137.84765625 241.5859375 C-149.81436595 243.88806314 -163.09066066 242.16773588 -173.5625 236 C-193.98478209 222.0020433 -204.28746306 200.42896535 -208.87109375 176.73510742 C-211.01403281 164.59138817 -211.44035437 152.7466929 -211.3125 140.4375 C-211.30690063 139.47876984 -211.30130127 138.52003967 -211.29553223 137.53225708 C-211.07274047 99.52453665 -208.84480951 62.466767 -182.515625 32.83984375 C-180.03257676 30.11576321 -180.03257676 30.11576321 -178.125 27.4921875 C-164.80832554 11.87447003 -143.98864327 3.06038986 -124 1 C-110.76076582 -0.0012115 -98.56476775 0.45020181 -86 5 C-85.37158203 5.21962402 -84.74316406 5.43924805 -84.09570312 5.66552734 C-57.11839114 15.18574259 -37.11112449 35.64986526 -24.75 61.125 C-18.2153049 75.11391865 -13.85304281 90.56730774 -13.83203125 106.02734375 C-13.82870285 106.8933168 -13.82537445 107.75928986 -13.82194519 108.65150452 C-13.8168963 110.48291496 -13.81453623 112.31433455 -13.81469727 114.14575195 C-13.81253151 116.89746052 -13.79441172 119.64875396 -13.77539062 122.40039062 C-13.72675582 136.98456784 -15.08890972 150.70117901 -18.75 164.875 C-19.13599365 166.39867187 -19.13599365 166.39867187 -19.52978516 167.953125 C-21.84348588 176.85477672 -24.77134866 185.3902631 -28 194 C-18.76 194 -9.52 194 0 194 C0 129.98 0 65.96 0 0 Z " fill="#FD491D" transform="translate(1266,375)"/>
<path d="M0 0 C0.8755957 0.24137695 1.75119141 0.48275391 2.65332031 0.73144531 C32.34924084 9.17804883 54.15833887 25.27464782 70 52 C81.69330748 73.30836117 85.68191024 103.38863667 79.3125 127.125 C78.59490568 129.43389119 77.82735975 131.72812941 77 134 C76.61457031 135.13824219 76.22914063 136.27648437 75.83203125 137.44921875 C66.42139394 163.67109163 47.18075933 181.51561493 22.5 193.25 C0.49784894 203.36867581 -22.22732721 208.32217439 -46.39683914 208.24382973 C-48.66792226 208.23811425 -50.93851749 208.24758327 -53.20956421 208.2610321 C-59.65292184 208.29770162 -66.09609092 208.31662037 -72.53955078 208.30541992 C-76.51230434 208.29956737 -80.48434346 208.31780648 -84.45695114 208.35130882 C-85.95998513 208.35923748 -87.46309749 208.35802024 -88.96611404 208.34728432 C-91.05974921 208.33294028 -93.15111879 208.34922909 -95.24462891 208.37231445 C-96.43182526 208.37294388 -97.61902161 208.3735733 -98.8421936 208.3742218 C-102.93769462 209.18582167 -104.43455382 210.77235675 -107 214 C-107.67511168 217.17150697 -107.67511168 217.17150697 -107.4375 220.5 C-107.41558594 221.6034375 -107.39367187 222.706875 -107.37109375 223.84375 C-107.00713923 226.93927894 -106.41040199 229.22938827 -105 232 C-102.648751 233.1756245 -101.252499 233.12996801 -98.6309185 233.1386652 C-97.24552071 233.14687687 -97.24552071 233.14687687 -95.83213508 233.15525442 C-94.81075041 233.15623253 -93.78936575 233.15721064 -92.73703003 233.15821838 C-91.11738002 233.16562535 -91.11738002 233.16562535 -89.46500981 233.17318195 C-85.82286624 233.18862123 -82.18074037 233.19693493 -78.53857422 233.20532227 C-75.93732546 233.21489574 -73.33607828 233.2249055 -70.73483276 233.23532104 C-65.12216812 233.25710227 -59.50950111 233.27524072 -53.89681625 233.29092598 C-45.78175238 233.31360964 -37.66671473 233.34175453 -29.55167307 233.37124526 C-16.38651106 233.41893964 -3.22133834 233.46219881 9.94384766 233.50268555 C22.73487176 233.54203109 35.52588634 233.58345505 48.31689453 233.62768555 C49.10493592 233.63040982 49.8929773 233.63313409 50.70489873 233.63594092 C54.65815239 233.64962024 58.61140591 233.66334054 62.56465936 233.67708123 C95.3764209 233.79107501 128.18820144 233.89706388 161 234 C161 251.16 161 268.32 161 286 C125.72938142 286.11036501 90.45893133 286.20263258 55.18819186 286.25532665 C51.0178763 286.26157968 46.84756111 286.26805134 42.67724609 286.2746582 C41.84706154 286.27596976 41.01687698 286.27728131 40.16153532 286.2786326 C26.74454496 286.30034975 13.32766244 286.33975076 -0.08926409 286.38576398 C-13.87096586 286.43263166 -27.65261141 286.46031712 -41.43438959 286.47044247 C-49.92871418 286.47728034 -58.42273387 286.4988243 -66.91696453 286.53958233 C-72.7531263 286.56614827 -78.58913197 286.57396992 -84.42534971 286.56750689 C-87.78555022 286.5643252 -91.14479602 286.57176154 -94.50497246 286.59602737 C-117.79134728 286.75586418 -135.01781128 283.90676833 -152.64453125 267.45703125 C-167.33175381 252.13652878 -171.40773441 235.0980456 -171.1484375 214.4765625 C-170.7061651 197.22793891 -164.44640853 183.78417302 -152.125 171.8828125 C-142.26255895 163.14439966 -130.7408033 158.79929295 -117.56176758 158.93408203 C-116.30217728 158.94384064 -115.04258698 158.95359924 -113.74482727 158.96365356 C-112.74423499 158.97469809 -112.74423499 158.97469809 -111.72342873 158.98596573 C-109.60481614 159.00822986 -107.48629645 159.02215692 -105.36759949 159.03366089 C-99.34560561 159.06698646 -93.32376012 159.10794988 -87.30200195 159.17138672 C-57.68172829 159.69403972 -57.68172829 159.69403972 -29 153 C-28.08605469 152.66355469 -27.17210937 152.32710937 -26.23046875 151.98046875 C-9.82416019 145.55126002 2.11745419 138.17239642 10 122 C10.33128906 121.34644531 10.66257812 120.69289063 11.00390625 120.01953125 C13.0212663 115.76066004 13.75774094 111.65279907 14 107 C14.06445312 105.79730469 14.12890625 104.59460938 14.1953125 103.35546875 C14.69244005 89.61712435 11.40729685 77.43435901 2.140625 66.8828125 C-13.43409042 51.83506113 -32.29537826 49.52663526 -53 49 C-50.85259795 51.19318806 -48.700888 52.98517529 -46.1875 54.75 C-37.70409477 61.06974775 -31.97758242 69.49379264 -30 80 C-29.71932833 83.8164151 -29.72048101 87.61233087 -29.75 91.4375 C-29.74226562 92.43587891 -29.73453125 93.43425781 -29.7265625 94.46289062 C-29.76904888 110.61833644 -36.19964039 124.35018483 -47.0234375 136.21875 C-56.08052716 144.97281436 -67.75111046 149.7121327 -80 152 C-80.93714844 152.18304688 -81.87429688 152.36609375 -82.83984375 152.5546875 C-101.67415778 155.20871939 -117.24777027 151.02109772 -132.6875 140.0625 C-134.46696594 138.71969733 -136.23844459 137.36621397 -138 136 C-138.71027344 135.46890625 -139.42054688 134.9378125 -140.15234375 134.390625 C-153.97474237 123.3327061 -161.75986081 105.18057168 -164 88 C-165.80374478 65.90969352 -158.06473601 45.98059591 -144 29 C-125.84578955 7.87664298 -95.38746532 -1.62784704 -68.42578125 -3.6796875 C-45.83678151 -4.99321963 -21.95454705 -6.17334035 0 0 Z " fill="#FD491C" transform="translate(358,338)"/>
<path d="M0 0 C0.99 0 1.98 0 3 0 C17.04432134 18.48091657 21.18236565 39.36373816 18.77294922 62.14697266 C17.53221874 70.5388622 14.59749832 79.20804231 8.6875 85.4375 C2.57243897 88.99276804 -2.88956382 90.91747564 -10 90 C-15.62030704 86.64943234 -18.09489313 82.19403976 -20 76 C-24.47131461 51.52700469 -18.47680639 26.67886118 -5 6 C-3.4278238 3.74739271 -1.95300363 1.95300363 0 0 Z " fill="#FDFBF9" transform="translate(763,464)"/>
<path d="M0 0 C16.12842522 4.60120239 27.42467785 18.36743658 36 32 C45.04342898 48.58686613 46.14305278 71.5788675 41.375 89.6875 C38.37233418 98.93953037 33.29157647 105.25621961 24.625 109.75 C20.83698369 111.05621252 17.97494481 111.24336397 14 111 C14.60080031 105.75279294 15.44414684 100.66951621 16.53125 95.49609375 C18.12827291 87.35718518 18.55602943 79.35645707 18.5 71.0625 C18.49823761 70.35543915 18.49647522 69.6483783 18.49465942 68.91989136 C18.37762996 47.64881861 14.6736831 25.72905589 3.78515625 7.1328125 C2 4 2 4 2 2 C1.34 2 0.68 2 0 2 C0 1.34 0 0.68 0 0 Z " fill="#FDFBF9" transform="translate(825,446)"/>
<path d="M0 0 C4.50576463 4.06617784 8.16067882 8.11484932 8.93359375 14.265625 C9.08268757 21.66769449 8.60641743 26.69888391 3.5625 32.3125 C-1.1397516 36.89100814 -6.47809902 39.44687405 -13.0625 39.6875 C-17.03264799 39.50612268 -19.38864028 39.03175326 -22.4375 36.3125 C-27.54837035 29.68114571 -31.14115083 23.48201293 -30.9375 14.94140625 C-29.82895238 9.11287072 -25.8478245 5.24799509 -21.35546875 1.640625 C-14.63438683 -2.67055548 -7.23680398 -3.55261286 0 0 Z " fill="#FDFAF8" transform="translate(272.4375,405.6875)"/>
<path d="M0 0 C5.10170552 2.15841387 8.17396766 5.93613404 10.85546875 10.68359375 C12.36097169 15.0459555 12.62448006 19.03386414 12.6875 23.625 C12.7066748 24.42429932 12.72584961 25.22359863 12.74560547 26.04711914 C12.61018874 32.9569361 10.05995578 37.55736017 5.5222168 42.66259766 C2.27331441 45.51704629 -1.61945261 45.33723608 -5.71875 45.27734375 C-9.32704118 44.83866451 -11.31002401 43.37718808 -14 41 C-18.97320694 34.36905741 -20.38126193 29.86077916 -20.4375 21.75 C-20.47037109 20.92886719 -20.50324219 20.10773437 -20.53710938 19.26171875 C-20.60353818 11.64052364 -17.72679801 7.11634059 -12.8125 1.5 C-8.55254643 -0.77197524 -4.72053275 -0.71454119 0 0 Z " fill="#FDFBF9" transform="translate(614,516)"/>
<path d="M0 0 C4.50587279 0.87239453 6.55617915 3.86971575 9.26953125 7.31640625 C12.06081522 12.62442167 11.78655008 18.57942549 10.95703125 24.37890625 C9.32128563 28.68949819 7.06024599 31.47370441 3.51953125 34.37890625 C0.30005248 35.63528821 -1.61218852 35.93903364 -5.04296875 35.37890625 C-9.30709686 32.50882002 -11.54012335 30.26142243 -13.04296875 25.37890625 C-13.86689704 16.32639541 -13.56050907 9.45979783 -8.35546875 1.94140625 C-5.56850967 0.05832579 -3.34063831 -0.19213319 0 0 Z " fill="#FCFAF7" transform="translate(1121.04296875,520.62109375)"/>
<path d="M0 0 C1.00432571 -0.00175232 2.00865143 -0.00350464 3.04341125 -0.00531006 C6.33364636 -0.00968029 9.62382694 -0.00680948 12.9140625 -0.00341797 C15.2080893 -0.00409197 17.50211602 -0.0050628 19.79614258 -0.00631714 C24.58724655 -0.00778719 29.37833181 -0.00566024 34.16943359 -0.00097656 C40.32451855 0.00474615 46.47956015 0.00142135 52.63464355 -0.00454903 C57.36306082 -0.00815137 62.09146769 -0.00701801 66.81988525 -0.00442123 C69.09100347 -0.00375239 71.36212262 -0.00457891 73.63323975 -0.00690079 C76.79327935 -0.00942472 79.95324704 -0.00559159 83.11328125 0 C84.05867264 -0.00202423 85.00406403 -0.00404846 85.97810364 -0.00613403 C92.42479473 0.01512676 92.42479473 0.01512676 93.5390625 1.12939453 C96.12456022 1.25444538 98.68467661 1.31544253 101.27172852 1.3347168 C102.0814209 1.34461639 102.89111328 1.35451599 103.7253418 1.36471558 C106.41452055 1.3964244 109.103717 1.42112488 111.79296875 1.44580078 C113.65242484 1.46636222 115.51187618 1.48735847 117.37132263 1.5087738 C122.27530065 1.56407819 127.17932143 1.61345043 132.08337402 1.66162109 C137.08361638 1.71177519 142.08379632 1.76749298 147.08398438 1.82275391 C156.90229049 1.93043774 166.72065069 2.03185985 176.5390625 2.12939453 C176.5390625 2.45939453 176.5390625 2.78939453 176.5390625 3.12939453 C151.57446343 3.17608048 126.60987088 3.21136666 101.64523697 3.23301888 C90.05416659 3.24333883 78.4631233 3.2574129 66.87207031 3.28027344 C56.77129465 3.30018529 46.67053861 3.31310573 36.56974387 3.31757152 C31.21967118 3.32018264 25.86965464 3.32633484 20.51959991 3.34085464 C15.4865691 3.35440373 10.45361769 3.35862259 5.42057037 3.35560989 C3.57103036 3.35616126 1.72148777 3.36015458 -0.1280365 3.36780548 C-2.64907496 3.37772489 -5.1698118 3.37537443 -7.69085693 3.36990356 C-8.79397299 3.37864209 -8.79397299 3.37864209 -9.91937423 3.38755715 C-13.59733443 3.36591632 -16.33543888 3.16226416 -19.4609375 1.12939453 C-12.93296023 0.29449176 -6.57695269 -0.01432771 0 0 Z " fill="#F84315" transform="translate(305.4609375,618.87060546875)"/>
<path d="M0 0 C1.31016083 0.00444122 2.62032166 0.00888245 3.97018433 0.01345825 C4.6922406 0.0131662 5.41429687 0.01287415 6.15823364 0.01257324 C8.54993621 0.01396895 10.94132901 0.0295412 13.33297729 0.04519653 C14.98921539 0.04892581 16.64545569 0.05177319 18.30169678 0.05377197 C22.6648872 0.06141514 27.02794486 0.08106944 31.39108276 0.10317993 C35.84174809 0.12362368 40.29243482 0.13277054 44.74313354 0.14285278 C53.47887161 0.16431474 62.2145017 0.19845885 70.95016479 0.24050903 C67.39609774 3.62564134 64.68680423 3.58159825 59.88668823 3.48928833 C59.18384705 3.47997284 58.48100586 3.47065735 57.75686646 3.46105957 C55.44059365 3.42676536 53.12537765 3.37086085 50.80953979 3.31472778 C49.20102163 3.28668665 47.59247938 3.25999709 45.98391724 3.23460388 C41.75528825 3.16422007 37.52723592 3.07549101 33.29904175 2.98294067 C28.98242677 2.89170175 24.6655187 2.81781157 20.34860229 2.74246216 C11.88207311 2.59212518 3.41607444 2.42240686 -5.04983521 2.24050903 C-3.04983521 0.24050903 -3.04983521 0.24050903 0 0 Z " fill="#F15F39" transform="translate(237.04983520507813,496.7594909667969)"/>
<path d="M0 0 C0.96605164 -0.00570007 1.93210327 -0.01140015 2.9274292 -0.01727295 C4.97146523 -0.02669095 7.01551623 -0.03324416 9.05957031 -0.03710938 C12.12072996 -0.04671452 15.18118796 -0.07772654 18.2421875 -0.109375 C30.7642901 -0.17479237 42.62881625 0.80668338 54.921875 3.203125 C54.921875 3.533125 54.921875 3.863125 54.921875 4.203125 C47.331875 4.203125 39.741875 4.203125 31.921875 4.203125 C31.426875 3.213125 31.426875 3.213125 30.921875 2.203125 C15.081875 2.203125 -0.758125 2.203125 -17.078125 2.203125 C-17.078125 1.873125 -17.078125 1.543125 -17.078125 1.203125 C-11.35768725 0.23187681 -5.79647548 0.02705697 0 0 Z " fill="#E84C25" transform="translate(657.078125,374.796875)"/>
<path d="M0 0 C0.33 0 0.66 0 1 0 C1.02465881 3.96930989 1.04284023 7.93859034 1.05493164 11.90795898 C1.05997057 13.25920386 1.06680177 14.61044326 1.07543945 15.96166992 C1.08752419 17.90020434 1.09269828 19.838778 1.09765625 21.77734375 C1.10289307 22.94515381 1.10812988 24.11296387 1.11352539 25.31616211 C1 28 1 28 0 29 C-0.23481693 31.18292774 -0.41363323 33.37203174 -0.5625 35.5625 C-0.64628906 36.76003906 -0.73007812 37.95757812 -0.81640625 39.19140625 C-0.87699219 40.11824219 -0.93757812 41.04507813 -1 42 C-1.33 42 -1.66 42 -2 42 C-2.04986353 37.46510373 -2.08593637 32.9303711 -2.10986328 28.39526367 C-2.11985006 26.85617285 -2.13344419 25.31710065 -2.15087891 23.77807617 C-2.24087337 15.62298961 -2.28577933 7.91023636 0 0 Z " fill="#F05934" transform="translate(538,473)"/>
<path d="M0 0 C0.33 0.99 0.66 1.98 1 3 C0.51789062 3.38671875 0.03578125 3.7734375 -0.4609375 4.171875 C-1.09257813 4.69265625 -1.72421875 5.2134375 -2.375 5.75 C-3.00148438 6.26046875 -3.62796875 6.7709375 -4.2734375 7.296875 C-6.09744454 9.09612176 -6.9012619 10.71019287 -8 13 C-12.44444444 17 -12.44444444 17 -15 17 C-15.33 17.99 -15.66 18.98 -16 20 C-16.66 19.67 -17.32 19.34 -18 19 C-6.66287016 5.18223235 -6.66287016 5.18223235 0 0 Z " fill="#F15831" transform="translate(576,403)"/>
<path d="M0 0 C4.93146059 9.00218068 4.25921445 19.72981993 4.125 29.6875 C4.11597656 30.97333984 4.10695313 32.25917969 4.09765625 33.58398438 C4.0743189 36.72285732 4.04158033 39.86132476 4 43 C3.67 43 3.34 43 3 43 C2.98018066 42.22398437 2.96036133 41.44796875 2.93994141 40.6484375 C2.84410122 37.09864413 2.73466196 33.54939219 2.625 30 C2.57859375 28.16888672 2.57859375 28.16888672 2.53125 26.30078125 C2.32255305 19.8659586 1.75873002 14.18392167 0 8 C-0.20992436 5.27938032 -0.09771582 2.736043 0 0 Z " fill="#E05A38" transform="translate(921,487)"/>
<path d="M0 0 C3 3 3 3 3.29296875 5.48046875 C3.25816406 6.37378906 3.22335937 7.26710938 3.1875 8.1875 C3.16042969 9.08855469 3.13335938 9.98960937 3.10546875 10.91796875 C3.07066406 11.60503906 3.03585937 12.29210937 3 13 C2.67 13 2.34 13 2 13 C1.95101562 13.98742187 1.90203125 14.97484375 1.8515625 15.9921875 C1.77679687 17.27351562 1.70203125 18.55484375 1.625 19.875 C1.52058594 21.78925781 1.52058594 21.78925781 1.4140625 23.7421875 C1 27 1 27 -1 29 C-0.67 19.43 -0.34 9.86 0 0 Z " fill="#EC4C25" transform="translate(782,499)"/>
<path d="M0 0 C1.98 0 3.96 0 6 0 C5.67 1.32 5.34 2.64 5 4 C5.99 4.33 6.98 4.66 8 5 C5.23220848 6.38389576 4.15366902 5.52895788 1.25 4.5625 C-5.51422879 2.5862313 -12.00880132 2.7244345 -19 3 C-19 2.34 -19 1.68 -19 1 C-12.73 1 -6.46 1 0 1 C0 0.67 0 0.34 0 0 Z " fill="#EA532E" transform="translate(1160,432)"/>
<path d="M0 0 C0 0.66 0 1.32 0 2 C-1.65 2 -3.3 2 -5 2 C-5.66 3.65 -6.32 5.3 -7 7 C-11.34263862 7.16702456 -14.20960634 7.12999997 -18 5 C-17.34773438 4.80664062 -16.69546875 4.61328125 -16.0234375 4.4140625 C-12.16190713 3.26357705 -8.31614567 2.10726371 -4.5 0.8125 C-2 0 -2 0 0 0 Z " fill="#F1512A" transform="translate(337,489)"/>
<path d="M0 0 C-0.66 1.65 -1.32 3.3 -2 5 C-5.04386724 5.08226668 -7.07175348 4.97608217 -10 4 C-11.33106622 3.65772583 -12.66400079 3.32248257 -14 3 C-12.4188708 2.49307308 -10.83498617 1.99473557 -9.25 1.5 C-7.92742188 1.08234375 -7.92742188 1.08234375 -6.578125 0.65625 C-4 0 -4 0 0 0 Z " fill="#F15A34" transform="translate(626,379)"/>
<path d="M0 0 C3.78699616 3.36621881 6.8272631 7.41641804 9 12 C8.67 12.66 8.34 13.32 8 14 C7.34 12.68 6.68 11.36 6 10 C5.34 10 4.68 10 4 10 C4 9.01 4 8.02 4 7 C3.01 6.67 2.02 6.34 1 6 C-0.25 4.0625 -0.25 4.0625 -1 2 C-0.67 1.34 -0.34 0.68 0 0 Z " fill="#F05129" transform="translate(419,378)"/>
<path d="M0 0 C0.33 0 0.66 0 1 0 C1.33 5.61 1.66 11.22 2 17 C1.01 16.34 0.02 15.68 -1 15 C-1.328125 12.79296875 -1.328125 12.79296875 -1.25 10.1875 C-1.22421875 9.29675781 -1.1984375 8.40601563 -1.171875 7.48828125 C-0.99458518 4.92160819 -0.66357916 2.48842185 0 0 Z " fill="#F74214" transform="translate(1172,513)"/>
<path d="M0 0 C0.33 0 0.66 0 1 0 C1.22226864 1.76913824 1.42733873 3.54044371 1.625 5.3125 C1.74101563 6.29863281 1.85703125 7.28476562 1.9765625 8.30078125 C2 11 2 11 0 14 C-0.66 14 -1.32 14 -2 14 C-1.03644647 4.58997722 -1.03644647 4.58997722 0 0 Z " fill="#F05A34" transform="translate(1195,528)"/>
<path d="M0 0 C0 0.33 0 0.66 0 1 C-6.17841869 3.41109022 -11.57541517 3.55747511 -18 2 C-18 1.67 -18 1.34 -18 1 C-11.93303301 0.22959149 -6.11485027 -0.09706112 0 0 Z " fill="#FAE6DD" transform="translate(661,433)"/>
<path d="M0 0 C0 0.66 0 1.32 0 2 C-2.08203125 3.76171875 -2.08203125 3.76171875 -4.8125 5.6875 C-5.70582031 6.33074219 -6.59914063 6.97398437 -7.51953125 7.63671875 C-8.33808594 8.08660156 -9.15664062 8.53648437 -10 9 C-10.99 8.67 -11.98 8.34 -13 8 C-11.72992786 7.0406581 -10.45891081 6.08256706 -9.1875 5.125 C-8.47980469 4.59132813 -7.77210937 4.05765625 -7.04296875 3.5078125 C-2.29015544 0 -2.29015544 0 0 0 Z " fill="#F25129" transform="translate(1111,386)"/>
<path d="M0 0 C0.99 0.33 1.98 0.66 3 1 C-3.07439825 7.86214442 -3.07439825 7.86214442 -6.9375 8.4375 C-7.9584375 8.2209375 -7.9584375 8.2209375 -9 8 C-7.88625 7.13375 -7.88625 7.13375 -6.75 6.25 C-4.33912357 4.27746474 -2.15957299 2.23955718 0 0 Z " fill="#F45229" transform="translate(860,547)"/>
<path d="M0 0 C-2.64315808 2.64997034 -3.85115341 2.9969914 -7.671875 3.07421875 C-9.03272226 2.96191582 -10.39224897 2.832515 -11.75 2.6875 C-12.44738281 2.62626953 -13.14476562 2.56503906 -13.86328125 2.50195312 C-15.57689681 2.34937092 -17.2886995 2.17666411 -19 2 C-19 1.67 -19 1.34 -19 1 C-12.63849395 0.34513908 -6.39628979 -0.12068471 0 0 Z " fill="#EC512B" transform="translate(308,497)"/>
<path d="M0 0 C1.65 0 3.3 0 5 0 C3.68 0.33 2.36 0.66 1 1 C1 1.66 1 2.32 1 3 C3.97 3 6.94 3 10 3 C10 3.33 10 3.66 10 4 C4.06 4.495 4.06 4.495 -2 5 C-2.66 4.01 -3.32 3.02 -4 2 C-3.34 1.67 -2.68 1.34 -2 1 C-1.34 1.33 -0.68 1.66 0 2 C0 1.34 0 0.68 0 0 Z " fill="#F3552E" transform="translate(258,400)"/>
<path d="M0 0 C0.33 1.32 0.66 2.64 1 4 C2.65 4.33 4.3 4.66 6 5 C6 5.99 6 6.98 6 8 C3.69 8 1.38 8 -1 8 C-0.67 5.36 -0.34 2.72 0 0 Z " fill="#F7D4C7" transform="translate(840,549)"/>
<path d="M0 0 C0.66 0.99 1.32 1.98 2 3 C-4 9 -4 9 -6.5625 9.0625 C-7.366875 9.041875 -8.17125 9.02125 -9 9 C-8.2575 8.443125 -7.515 7.88625 -6.75 7.3125 C-4.08292005 5.06972822 -2.08443768 2.77925025 0 0 Z " fill="#F35229" transform="translate(278,434)"/>
<path d="M0 0 C0 4.55756032 -2.06918363 7.58071423 -5 11 C-5.66 11 -6.32 11 -7 11 C-5.5140084 6.40693504 -3.14985318 3.56430755 0 0 Z " fill="#F0512A" transform="translate(1080,412)"/>
<path d="M0 0 C-1.90598443 2.43542455 -3.00596275 3.00158196 -6.0625 3.8125 C-7.5165625 3.9053125 -7.5165625 3.9053125 -9 4 C-9.66 3.34 -10.32 2.68 -11 2 C-3.57142857 -1.57142857 -3.57142857 -1.57142857 0 0 Z " fill="#F0532B" transform="translate(255,344)"/>
<path d="M0 0 C0.33 0.99 0.66 1.98 1 3 C-1.31 4.98 -3.62 6.96 -6 9 C-6.33 8.01 -6.66 7.02 -7 6 C-4.69 4.02 -2.38 2.04 0 0 Z " fill="#F45026" transform="translate(576,403)"/>
<path d="M0 0 C0.33 0 0.66 0 1 0 C1 4.62 1 9.24 1 14 C0.01 14 -0.98 14 -2 14 C-1.43393721 9.30976546 -0.81462495 4.65499974 0 0 Z " fill="#EE522D" transform="translate(1192,543)"/>
<path d="M0 0 C1.98983228 3.97966457 2.22400716 4.67675132 1.625 8.75 C1.51414062 9.54921875 1.40328125 10.3484375 1.2890625 11.171875 C1.19367188 11.77515625 1.09828125 12.3784375 1 13 C0.34 12.67 -0.32 12.34 -1 12 C-0.67 8.04 -0.34 4.08 0 0 Z " fill="#F25932" transform="translate(1171,505)"/>
<path d="M0 0 C0.99 0.33 1.98 0.66 3 1 C3 1.66 3 2.32 3 3 C1.33333333 4.66666667 -0.33333333 6.33333333 -2 8 C-2.33 8.99 -2.66 9.98 -3 11 C-3.66 11 -4.32 11 -5 11 C-3.55049545 7.2089881 -1.84827434 3.6125362 0 0 Z " fill="#F05731" transform="translate(700,454)"/>
<path d="M0 0 C0.33 0 0.66 0 1 0 C0.88490339 1.41750563 0.75746342 2.83401169 0.625 4.25 C0.55539062 5.03890625 0.48578125 5.8278125 0.4140625 6.640625 C-0.01507113 9.085877 -0.78600638 10.84836903 -2 13 C-2.625 9.625 -2.625 9.625 -3 6 C-2.34 5.34 -1.68 4.68 -1 4 C-0.3574765 1.93125966 -0.3574765 1.93125966 0 0 Z " fill="#ED451D" transform="translate(840,544)"/>
<path d="M0 0 C0 0.66 0 1.32 0 2 C-3.4019487 4.09350689 -6.05272412 4.17942163 -10 4 C-4.7826087 0 -4.7826087 0 0 0 Z " fill="#F25931" transform="translate(347,485)"/>
<path d="M0 0 C0.99 0.33 1.98 0.66 3 1 C0.36 2.98 -2.28 4.96 -5 7 C-5.66 6.67 -6.32 6.34 -7 6 C-5.90716423 4.96704564 -4.80029421 3.94892165 -3.6875 2.9375 C-3.07261719 2.36902344 -2.45773438 1.80054688 -1.82421875 1.21484375 C-0.92123047 0.61349609 -0.92123047 0.61349609 0 0 Z " fill="#F25027" transform="translate(223,359)"/>
<path d="M0 0 C3.77545388 1.09068668 6.47043472 1.9083091 9 5 C8.01 5.33 7.02 5.66 6 6 C6 5.34 6 4.68 6 4 C5.34 4 4.68 4 4 4 C3.67 4.66 3.34 5.32 3 6 C2.67 4.68 2.34 3.36 2 2 C1.34 2 0.68 2 0 2 C0 1.34 0 0.68 0 0 Z " fill="#FADED2" transform="translate(825,446)"/>
<path d="M0 0 C0.33 0.66 0.66 1.32 1 2 C0.07421875 3.91015625 0.07421875 3.91015625 -1.3125 6.0625 C-1.76238281 6.77535156 -2.21226562 7.48820312 -2.67578125 8.22265625 C-4 10 -4 10 -6 11 C-4.54955729 6.89041233 -2.48889248 3.56741255 0 0 Z " fill="#FBE6DE" transform="translate(759,469)"/>
<path d="M0 0 C-2.98646769 1.99097846 -5.59687262 2.94124926 -9 4 C-8.625 2.0625 -8.625 2.0625 -8 0 C-5.13822943 -1.43088528 -3.06624227 -0.59991697 0 0 Z " fill="#F04D24" transform="translate(630,437)"/>
<path d="M0 0 C2 3 2 3 1.625 5.6875 C1.41875 6.450625 1.2125 7.21375 1 8 C0.01 8.33 -0.98 8.66 -2 9 C-1.34 6.03 -0.68 3.06 0 0 Z " fill="#F05029" transform="translate(435,411)"/>
<path d="M0 0 C-1.44390925 3.80666984 -3.34952803 5.26602582 -7 7 C-7.66 6.67 -8.32 6.34 -9 6 C-7.8803014 4.99406757 -6.7540588 3.9954151 -5.625 3 C-4.68527344 2.1646875 -4.68527344 2.1646875 -3.7265625 1.3125 C-2 0 -2 0 0 0 Z " fill="#ED542E" transform="translate(214,505)"/>
<path d="M0 0 C2.27795022 2.27795022 3.05219877 3.93787293 4 7 C3.625 9.3125 3.625 9.3125 3 11 C3 10.34 3 9.68 3 9 C2.34 9 1.68 9 1 9 C0.67 6.03 0.34 3.06 0 0 Z " fill="#EC5833" transform="translate(665,492)"/>
<path d="M0 0 C0.33 0 0.66 0 1 0 C1.25 3.25 1.25 3.25 1 7 C-0.32 8.32 -1.64 9.64 -3 11 C-2.01 7.37 -1.02 3.74 0 0 Z " fill="#F7CFC2" transform="translate(436,466)"/>
<path d="M0 0 C0.66 0.33 1.32 0.66 2 1 C-2.30769231 4.93846154 -2.30769231 4.93846154 -5.8125 5.25 C-6.534375 5.1675 -7.25625 5.085 -8 5 C-5.45378681 2.99940392 -3.01962385 1.20784954 0 0 Z " fill="#EF603C" transform="translate(606,384)"/>
<path d="M0 0 C2.97 0.495 2.97 0.495 6 1 C3.61426621 2.89213369 1.92824652 4.02391783 -1 5 C-0.67 3.35 -0.34 1.7 0 0 Z " fill="#F04F27" transform="translate(377,528)"/>
</svg>
